<svg width="512" height="512" viewBox="0 0 512 512" fill="none" xmlns="http://www.w3.org/2000/svg">
<g clip-path="url(#clip0_96_7)">
<rect width="512" height="512" fill="white"/>
<path d="M183.563 120H269.963L262.163 157.2C275.763 145.2 287.963 136 298.763 129.6C309.963 123.2 321.963 120 334.763 120C347.563 120 357.563 124.4 364.763 133.2C372.363 142 376.163 152.6 376.163 165C376.163 176.6 372.363 186.8 364.763 195.6C357.163 204.4 346.563 208.8 332.963 208.8C324.163 208.8 318.163 206.8 314.963 202.8C312.163 198.4 309.963 192.2 308.363 184.2C307.163 179 305.963 175.2 304.763 172.8C303.563 170.4 301.363 169.2 298.163 169.2C289.763 169.2 282.563 171 276.563 174.6C270.963 177.8 263.563 183.6 254.363 192L206.363 420H119.963L183.563 120Z" fill="#FF4081"/>
</g>
<defs>
<clipPath id="clip0_96_7">
<rect width="512" height="512" fill="white"/>
</clipPath>
</defs>
</svg>
