<svg width="750" height="285" viewBox="0 0 750 285" fill="none" xmlns="http://www.w3.org/2000/svg">
<path d="M31.829 60H75.029L71.129 78.6C77.929 72.6 84.029 68 89.429 64.8C95.029 61.6 101.029 60 107.429 60C113.829 60 118.829 62.2 122.429 66.6C126.229 71 128.129 76.3 128.129 82.5C128.129 88.3 126.229 93.4 122.429 97.8C118.629 102.2 113.329 104.4 106.529 104.4C102.129 104.4 99.129 103.4 97.529 101.4C96.129 99.2 95.029 96.1 94.229 92.1C93.629 89.5 93.029 87.6 92.429 86.4C91.829 85.2 90.729 84.6 89.129 84.6C84.929 84.6 81.329 85.5 78.329 87.3C75.529 88.9 71.829 91.8 67.229 96L43.229 210H0.0289848L31.829 60ZM167.122 211.8C152.322 211.8 140.822 208 132.622 200.4C124.422 192.6 120.322 180.5 120.322 164.1C120.322 150.3 123.022 135.1 128.422 118.5C133.822 101.9 142.622 87.6 154.822 75.6C167.022 63.4 182.522 57.3 201.322 57.3C223.322 57.3 234.322 66.9 234.322 86.1C234.322 97.3 231.122 107.6 224.722 117C218.322 126.4 209.822 134 199.222 139.8C188.622 145.4 177.322 148.6 165.322 149.4C164.922 155.4 164.722 159.4 164.722 161.4C164.722 171.2 166.422 177.9 169.822 181.5C173.222 184.9 178.722 186.6 186.322 186.6C197.122 186.6 206.322 184.1 213.922 179.1C221.722 174.1 230.222 166.5 239.422 156.3H249.622C227.422 193.3 199.922 211.8 167.122 211.8ZM167.722 135C175.122 134.6 182.122 132 188.722 127.2C195.522 122.4 200.922 116.3 204.922 108.9C209.122 101.5 211.222 93.7 211.222 85.5C211.222 77.3 208.722 73.2 203.722 73.2C196.522 73.2 189.422 79.5 182.422 92.1C175.622 104.7 170.722 119 167.722 135ZM275.359 211.8C263.959 211.8 254.459 207.9 246.859 200.1C239.259 192.3 235.459 180.1 235.459 163.5C235.459 148.7 238.359 133.2 244.159 117C250.159 100.6 258.959 86.8 270.559 75.6C282.359 64.2 296.359 58.5 312.559 58.5C320.759 58.5 326.859 59.9 330.859 62.7C334.859 65.5 336.859 69.2 336.859 73.8V75.9L340.159 60H383.359L361.759 162C360.959 165 360.559 168.2 360.559 171.6C360.559 180.2 364.659 184.5 372.859 184.5C378.459 184.5 383.259 181.9 387.259 176.7C391.459 171.5 394.759 164.7 397.159 156.3H409.759C402.359 177.9 393.159 192.6 382.159 200.4C371.359 208 360.459 211.8 349.459 211.8C341.059 211.8 334.259 209.5 329.059 204.9C324.059 200.1 321.059 193.2 320.059 184.2C314.259 192.4 307.759 199.1 300.559 204.3C293.559 209.3 285.159 211.8 275.359 211.8ZM294.859 182.7C299.859 182.7 304.759 180.4 309.559 175.8C314.559 171 317.959 164.5 319.759 156.3L334.159 88.5C334.159 85.9 333.159 83.4 331.159 81C329.159 78.4 326.059 77.1 321.859 77.1C313.859 77.1 306.659 81.8 300.259 91.2C293.859 100.4 288.859 111.6 285.259 124.8C281.659 137.8 279.859 149.3 279.859 159.3C279.859 169.3 281.259 175.7 284.059 178.5C287.059 181.3 290.659 182.7 294.859 182.7ZM433.269 211.8C421.869 211.8 412.369 207.9 404.769 200.1C397.169 192.3 393.369 180.1 393.369 163.5C393.369 148.7 396.269 133.2 402.069 117C408.069 100.6 416.869 86.8 428.469 75.6C440.269 64.2 454.269 58.5 470.469 58.5C478.669 58.5 484.769 59.9 488.769 62.7C492.769 65.5 494.769 69.2 494.769 73.8V75L509.469 6L553.869 -1.43051e-05L519.369 162C518.569 165 518.169 168.2 518.169 171.6C518.169 175.6 519.069 178.5 520.869 180.3C522.869 181.9 526.069 182.7 530.469 182.7C536.069 182.7 540.869 180.3 544.869 175.5C549.069 170.7 552.369 164.3 554.769 156.3H567.369C555.169 192.1 535.069 210 507.069 210C498.869 210 492.169 207.8 486.969 203.4C481.969 199 478.869 192.6 477.669 184.2C472.469 192.2 466.169 198.8 458.769 204C451.569 209.2 443.069 211.8 433.269 211.8ZM452.769 182.7C457.569 182.7 462.369 180.5 467.169 176.1C472.169 171.7 475.569 165.6 477.369 157.8V156.3L492.069 87.6C490.269 80.6 486.169 77.1 479.769 77.1C471.769 77.1 464.569 81.8 458.169 91.2C451.769 100.4 446.769 111.6 443.169 124.8C439.569 137.8 437.769 149.3 437.769 159.3C437.769 169.3 439.169 175.7 441.969 178.5C444.969 181.3 448.569 182.7 452.769 182.7ZM601.686 285C592.286 285 583.986 281.9 576.786 275.7C569.786 269.7 566.286 262 566.286 252.6C566.286 243.8 568.486 236.6 572.886 231C577.286 225.4 582.986 221 589.986 217.8C596.986 214.6 606.386 211.2 618.186 207.6L621.186 194.4C610.986 206 598.786 211.8 584.586 211.8C574.986 211.8 567.186 208.8 561.186 202.8C555.386 196.8 552.486 187.8 552.486 175.8C552.486 170.8 553.286 164.3 554.886 156.3L575.286 60H618.486L596.886 162C596.286 164.4 595.986 166.9 595.986 169.5C595.986 178.3 598.986 182.7 604.986 182.7C610.586 182.7 615.386 180.4 619.386 175.8C623.386 171 626.586 164.5 628.986 156.3L649.386 60H692.886L656.286 234C652.286 253.2 645.186 266.5 634.986 273.9C624.986 281.3 613.886 285 601.686 285ZM594.786 258.3C598.386 258.3 601.786 256.4 604.986 252.6C608.186 249 610.686 243.1 612.486 234.9L616.086 217.2C605.486 220.8 597.286 225 591.486 229.8C585.686 234.6 582.786 240.8 582.786 248.4C582.786 250.8 583.986 253 586.386 255C588.786 257.2 591.586 258.3 594.786 258.3ZM725.874 211.2C719.274 211.2 713.674 208.9 709.074 204.3C704.474 199.7 702.174 194.1 702.174 187.5C702.174 180.9 704.474 175.3 709.074 170.7C713.674 165.9 719.274 163.5 725.874 163.5C732.474 163.5 738.074 165.9 742.674 170.7C747.474 175.3 749.874 180.9 749.874 187.5C749.874 194.1 747.474 199.7 742.674 204.3C738.074 208.9 732.474 211.2 725.874 211.2Z" fill="#FF4081"/>
</svg>
